<?xml version="1.0" encoding="UTF-8" standalone="no"?>
<?xml-stylesheet href="fusile.css" type="text/css"?>
<!DOCTYPE svg PUBLIC "-//W3C//DTD SVG 1.1//EN"
 "http://www.w3.org/Graphics/SVG/1.1/DTD/svg11.dtd">
<!-- Generated by graphviz version 2.38.0 (20140413.2041)
 -->
<!-- Title: fusile Pages: 1 -->
<svg width="717pt" height="242pt"
 viewBox="0.00 0.00 716.62 242.00" xmlns="http://www.w3.org/2000/svg" xmlns:xlink="http://www.w3.org/1999/xlink">
<g id="graph0" class="graph" transform="scale(1 1) rotate(0) translate(4 238)">
<title>fusile</title>
<polygon fill="white" stroke="none" points="-4,4 -4,-238 712.618,-238 712.618,4 -4,4"/>
<g id="clust1" class="cluster"><title>clusterComponent</title>
<polygon fill="none" stroke="black" points="83,-8 83,-226 625.618,-226 625.618,-8 83,-8"/>
<text text-anchor="middle" x="354.309" y="-210.8" font-family="Times,serif" font-size="14.00">Fusile</text>
</g>
<!-- fs.read -->
<g id="node1" class="node"><title>fs.read</title>
<text text-anchor="middle" x="27" y="-29.8" font-family="Times,serif" font-size="14.00">fs.read</text>
</g>
<!-- transpiler? -->
<g id="node3" class="node"><title>transpiler?</title>
<polygon fill="none" stroke="black" points="158.074,-52 90.9264,-34 158.074,-16 225.221,-34 158.074,-52"/>
<text text-anchor="middle" x="158.074" y="-29.8" font-family="Times,serif" font-size="14.00">transpiler?</text>
</g>
<!-- fs.read&#45;&gt;transpiler? -->
<g id="edge12" class="edge"><title>fs.read&#45;&gt;transpiler?</title>
<path fill="none" stroke="black" d="M54.1585,-34C54.1585,-34 80.9289,-34 80.9289,-34"/>
<polygon fill="black" stroke="black" points="80.9289,-37.5001 90.9289,-34 80.9289,-30.5001 80.9289,-37.5001"/>
</g>
<!-- data -->
<g id="node2" class="node"><title>data</title>
<text text-anchor="middle" x="681.618" y="-71.8" font-family="Times,serif" font-size="14.00">data</text>
</g>
<!-- cached? -->
<g id="node4" class="node"><title>cached?</title>
<polygon fill="none" stroke="black" points="158.074,-124 103.464,-106 158.074,-88 212.683,-106 158.074,-124"/>
<text text-anchor="middle" x="158.074" y="-101.8" font-family="Times,serif" font-size="14.00">cached?</text>
</g>
<!-- transpiler?&#45;&gt;cached? -->
<g id="edge2" class="edge"><title>transpiler?&#45;&gt;cached?</title>
<path fill="none" stroke="black" d="M158.618,-52.1686C158.618,-52.1686 158.618,-78.0866 158.618,-78.0866"/>
<polygon fill="black" stroke="black" points="155.118,-78.0866 158.618,-88.0866 162.118,-78.0866 155.118,-78.0866"/>
</g>
<!-- Source -->
<g id="node8" class="node"><title>Source</title>
<ellipse fill="none" stroke="black" cx="316.189" cy="-34" rx="34.8285" ry="18"/>
<text text-anchor="middle" x="316.189" y="-29.8" font-family="Times,serif" font-size="14.00">Source</text>
</g>
<!-- transpiler?&#45;&gt;Source -->
<g id="edge1" class="edge"><title>transpiler?&#45;&gt;Source</title>
<path fill="none" stroke="black" d="M225.587,-34C225.587,-34 271.15,-34 271.15,-34"/>
<polygon fill="black" stroke="black" points="271.15,-37.5001 281.15,-34 271.15,-30.5001 271.15,-37.5001"/>
<text text-anchor="middle" x="253.336" y="-36.8" font-family="Times,serif" font-size="14.00">No</text>
</g>
<!-- Transpiler -->
<g id="node6" class="node"><title>Transpiler</title>
<ellipse fill="none" stroke="black" cx="158.074" cy="-178" rx="46.2831" ry="18"/>
<text text-anchor="middle" x="158.074" y="-173.8" font-family="Times,serif" font-size="14.00">Transpiler</text>
</g>
<!-- cached?&#45;&gt;Transpiler -->
<g id="edge3" class="edge"><title>cached?&#45;&gt;Transpiler</title>
<path fill="none" stroke="black" d="M158.618,-124.169C158.618,-124.169 158.618,-149.587 158.618,-149.587"/>
<polygon fill="black" stroke="black" points="155.118,-149.587 158.618,-159.587 162.118,-149.587 155.118,-149.587"/>
</g>
<!-- Cache -->
<g id="node7" class="node"><title>Cache</title>
<ellipse fill="none" stroke="black" cx="316.189" cy="-106" rx="32.4063" ry="18"/>
<text text-anchor="middle" x="316.189" y="-101.8" font-family="Times,serif" font-size="14.00">Cache</text>
</g>
<!-- cached?&#45;&gt;Cache -->
<g id="edge4" class="edge"><title>cached?&#45;&gt;Cache</title>
<path fill="none" stroke="black" d="M212.931,-106C212.931,-106 273.553,-106 273.553,-106"/>
<polygon fill="black" stroke="black" points="273.553,-109.5 283.553,-106 273.553,-102.5 273.553,-109.5"/>
<text text-anchor="middle" x="253.336" y="-108.8" font-family="Times,serif" font-size="14.00">Yes</text>
</g>
<!-- CSS? -->
<g id="node5" class="node"><title>CSS?</title>
<polygon fill="none" stroke="black" points="443.148,-52 400.954,-34 443.148,-16 485.343,-34 443.148,-52"/>
<text text-anchor="middle" x="443.148" y="-29.8" font-family="Times,serif" font-size="14.00">CSS?</text>
</g>
<!-- Autoprefixer -->
<g id="node9" class="node"><title>Autoprefixer</title>
<ellipse fill="none" stroke="black" cx="443.148" cy="-106" rx="55.0922" ry="18"/>
<text text-anchor="middle" x="443.148" y="-101.8" font-family="Times,serif" font-size="14.00">Autoprefixer</text>
</g>
<!-- CSS?&#45;&gt;Autoprefixer -->
<g id="edge9" class="edge"><title>CSS?&#45;&gt;Autoprefixer</title>
<path fill="none" stroke="black" d="M443.618,-52.1686C443.618,-52.1686 443.618,-77.5867 443.618,-77.5867"/>
<polygon fill="black" stroke="black" points="440.118,-77.5867 443.618,-87.5867 447.118,-77.5868 440.118,-77.5867"/>
</g>
<!-- Buffer -->
<g id="node10" class="node"><title>Buffer</title>
<ellipse fill="none" stroke="black" cx="584.586" cy="-76" rx="33.0632" ry="18"/>
<text text-anchor="middle" x="584.586" y="-71.8" font-family="Times,serif" font-size="14.00">Buffer</text>
</g>
<!-- CSS?&#45;&gt;Buffer -->
<g id="edge8" class="edge"><title>CSS?&#45;&gt;Buffer</title>
<path fill="none" stroke="black" d="M485.594,-34C527.265,-34 584.618,-34 584.618,-34 584.618,-34 584.618,-47.9445 584.618,-47.9445"/>
<polygon fill="black" stroke="black" points="581.118,-47.9444 584.618,-57.9445 588.118,-47.9445 581.118,-47.9444"/>
<text text-anchor="middle" x="524.999" y="-62.8" font-family="Times,serif" font-size="14.00">No</text>
</g>
<!-- Transpiler&#45;&gt;Cache -->
<g id="edge5" class="edge"><title>Transpiler&#45;&gt;Cache</title>
<path fill="none" stroke="black" d="M204.357,-178C251.154,-178 316.618,-178 316.618,-178 316.618,-178 316.618,-134.169 316.618,-134.169"/>
<polygon fill="black" stroke="black" points="320.118,-134.169 316.618,-124.169 313.118,-134.169 320.118,-134.169"/>
</g>
<!-- Cache&#45;&gt;Source -->
<g id="edge6" class="edge"><title>Cache&#45;&gt;Source</title>
<path fill="none" stroke="black" d="M316.618,-87.8314C316.618,-87.8314 316.618,-62.4133 316.618,-62.4133"/>
<polygon fill="black" stroke="black" points="320.118,-62.4132 316.618,-52.4133 313.118,-62.4133 320.118,-62.4132"/>
</g>
<!-- Source&#45;&gt;CSS? -->
<g id="edge7" class="edge"><title>Source&#45;&gt;CSS?</title>
<path fill="none" stroke="black" d="M350.881,-34C350.881,-34 390.807,-34 390.807,-34"/>
<polygon fill="black" stroke="black" points="390.807,-37.5001 400.807,-34 390.806,-30.5001 390.807,-37.5001"/>
</g>
<!-- Autoprefixer&#45;&gt;Buffer -->
<g id="edge10" class="edge"><title>Autoprefixer&#45;&gt;Buffer</title>
<path fill="none" stroke="black" d="M492.618,-97.6727C492.618,-87.8967 492.618,-73 492.618,-73 492.618,-73 541.903,-73 541.903,-73"/>
<polygon fill="black" stroke="black" points="541.903,-76.5001 551.903,-73 541.902,-69.5001 541.903,-76.5001"/>
</g>
<!-- Buffer&#45;&gt;data -->
<g id="edge11" class="edge"><title>Buffer&#45;&gt;data</title>
<path fill="none" stroke="black" d="M617.707,-76C617.707,-76 644.439,-76 644.439,-76"/>
<polygon fill="black" stroke="black" points="644.439,-79.5001 654.439,-76 644.439,-72.5001 644.439,-79.5001"/>
</g>
</g>
</svg>
