<?xml version="1.0" encoding="UTF-8" standalone="no"?>
<?xml-stylesheet href="traditional-setup.css" type="text/css"?>
<!DOCTYPE svg PUBLIC "-//W3C//DTD SVG 1.1//EN"
 "http://www.w3.org/Graphics/SVG/1.1/DTD/svg11.dtd">
<!-- Generated by graphviz version 2.38.0 (20140413.2041)
 -->
<!-- Title: fusile Pages: 1 -->
<svg width="1244pt" height="438pt"
 viewBox="0.00 0.00 1244.00 438.32" xmlns="http://www.w3.org/2000/svg" xmlns:xlink="http://www.w3.org/1999/xlink">
<g id="graph0" class="graph" transform="scale(1 1) rotate(0) translate(4 434.324)">
<title>fusile</title>
<polygon fill="white" stroke="none" points="-4,4 -4,-434.324 1240,-434.324 1240,4 -4,4"/>
<g id="clust1" class="cluster"><title>clusterComponent</title>
<polygon fill="none" stroke="black" points="8,-8 8,-422.324 1228,-422.324 1228,-8 8,-8"/>
<text text-anchor="middle" x="618" y="-407.124" font-family="Times,serif" font-size="14.00">Traditional setup</text>
</g>
<!-- Source Dir -->
<g id="node1" class="node"><title>Source Dir</title>
<polygon fill="none" stroke="black" points="977.538,-52 974.538,-56 953.538,-56 950.538,-52 900.462,-52 900.462,-16 977.538,-16 977.538,-52"/>
<text text-anchor="middle" x="939" y="-29.8" font-family="Times,serif" font-size="14.00">Source Dir</text>
</g>
<!-- Artifact Dir -->
<g id="node2" class="node"><title>Artifact Dir</title>
<polygon fill="none" stroke="black" points="1145.69,-52 1142.69,-56 1121.69,-56 1118.69,-52 1064.31,-52 1064.31,-16 1145.69,-16 1145.69,-52"/>
<text text-anchor="middle" x="1105" y="-29.8" font-family="Times,serif" font-size="14.00">Artifact Dir</text>
</g>
<!-- Transpiler Task -->
<g id="node3" class="node"><title>Transpiler Task</title>
<polygon fill="none" stroke="black" points="1128,-138 1036.3,-120 1128,-102 1219.7,-120 1128,-138"/>
<text text-anchor="middle" x="1128" y="-115.8" font-family="Times,serif" font-size="14.00">Transpiler Task</text>
</g>
<!-- Transpiler Task&#45;&gt;Source Dir -->
<g id="edge1" class="edge"><title>Transpiler Task&#45;&gt;Source Dir</title>
<path fill="none" stroke="black" d="M1124.68,-102.508C1121.63,-91.677 1116.02,-78.0685 1106,-70 1096.75,-62.5534 1033.55,-50.7013 987.627,-42.8856"/>
<polygon fill="black" stroke="black" points="987.977,-39.3954 977.534,-41.1852 986.814,-46.2981 987.977,-39.3954"/>
<text text-anchor="middle" x="1128.04" y="-72.8" font-family="Times,serif" font-size="14.00">read</text>
</g>
<!-- Transpiler Task&#45;&gt;Artifact Dir -->
<g id="edge2" class="edge"><title>Transpiler Task&#45;&gt;Artifact Dir</title>
<path fill="none" stroke="black" d="M1142.85,-104.853C1151.24,-95.069 1158.97,-81.7479 1153,-70 1150.95,-65.9607 1148.18,-62.2769 1145.02,-58.9456"/>
<polygon fill="black" stroke="black" points="1147.32,-56.3124 1137.55,-52.2147 1142.63,-61.5109 1147.32,-56.3124"/>
<text text-anchor="middle" x="1169.38" y="-72.8" font-family="Times,serif" font-size="14.00">write</text>
</g>
<!-- Web Server -->
<g id="node4" class="node"><title>Web Server</title>
<polygon fill="none" stroke="black" points="1018.85,-138 937.148,-138 937.148,-102 1018.85,-102 1018.85,-138"/>
<text text-anchor="middle" x="978" y="-115.8" font-family="Times,serif" font-size="14.00">Web Server</text>
</g>
<!-- Web Server&#45;&gt;Source Dir -->
<g id="edge4" class="edge"><title>Web Server&#45;&gt;Source Dir</title>
<path fill="none" stroke="black" d="M953.626,-101.717C948.292,-96.6586 943.343,-90.6704 940.327,-84 937.312,-77.3313 936.173,-69.6133 935.99,-62.3035"/>
<polygon fill="black" stroke="black" points="939.496,-62.1566 936.298,-52.0558 932.499,-61.9461 939.496,-62.1566"/>
<text text-anchor="middle" x="976.336" y="-72.8" font-family="Times,serif" font-size="14.00">read fallback</text>
</g>
<!-- Web Server&#45;&gt;Artifact Dir -->
<g id="edge3" class="edge"><title>Web Server&#45;&gt;Artifact Dir</title>
<path fill="none" stroke="black" d="M996.099,-101.98C1007.23,-91.9891 1022.08,-79.5018 1036.42,-70 1043.47,-65.3322 1051.22,-60.8344 1058.9,-56.7075"/>
<polygon fill="black" stroke="black" points="1060.59,-59.7756 1067.83,-52.0454 1057.35,-53.5701 1060.59,-59.7756"/>
<text text-anchor="middle" x="1070.79" y="-72.8" font-family="Times,serif" font-size="14.00">read attempt</text>
</g>
<!-- Browser -->
<g id="node5" class="node"><title>Browser</title>
<polygon fill="none" stroke="black" points="1064.94,-224 1007.06,-224 1007.06,-188 1070.94,-188 1070.94,-218 1064.94,-224"/>
<polyline fill="none" stroke="black" points="1064.94,-224 1064.94,-218 "/>
<polyline fill="none" stroke="black" points="1070.94,-218 1064.94,-218 "/>
<text text-anchor="middle" x="1039" y="-201.8" font-family="Times,serif" font-size="14.00">Browser</text>
</g>
<!-- Browser&#45;&gt;Web Server -->
<g id="edge5" class="edge"><title>Browser&#45;&gt;Web Server</title>
<path fill="none" stroke="black" d="M1026.36,-187.595C1017.72,-175.69 1006.11,-159.715 996.442,-146.395"/>
<polygon fill="black" stroke="black" points="999.122,-144.13 990.414,-138.095 993.458,-148.243 999.122,-144.13"/>
<text text-anchor="middle" x="1032.21" y="-158.8" font-family="Times,serif" font-size="14.00">request</text>
</g>
<!-- File Watcher -->
<g id="node6" class="node"><title>File Watcher</title>
<ellipse fill="none" stroke="black" cx="1161" cy="-333.162" rx="55.3132" ry="55.3132"/>
<ellipse fill="none" stroke="black" cx="1161" cy="-333.162" rx="59.3242" ry="59.3242"/>
<text text-anchor="middle" x="1161" y="-328.962" font-family="Times,serif" font-size="14.00">File Watcher</text>
</g>
<!-- File Watcher&#45;&gt;Source Dir -->
<g id="edge6" class="edge"><title>File Watcher&#45;&gt;Source Dir</title>
<path fill="none" stroke="black" d="M1117.51,-292.506C1109.59,-286.007 1101.23,-279.581 1093,-274 1053.51,-247.216 1034.92,-254.225 998,-224 959.867,-192.78 944.509,-184.436 928,-138 919.199,-113.245 924.025,-83.1999 929.792,-61.9646"/>
<polygon fill="black" stroke="black" points="933.167,-62.8913 932.643,-52.3095 926.454,-60.9091 933.167,-62.8913"/>
<text text-anchor="middle" x="958.714" y="-158.8" font-family="Times,serif" font-size="14.00">watch</text>
</g>
<!-- File Watcher&#45;&gt;Browser -->
<g id="edge7" class="edge"><title>File Watcher&#45;&gt;Browser</title>
<path fill="none" stroke="black" d="M1120.04,-290.137C1100.95,-270.552 1078.91,-247.947 1062.64,-231.256"/>
<polygon fill="black" stroke="black" points="1065.09,-228.754 1055.61,-224.036 1060.08,-233.64 1065.09,-228.754"/>
<text text-anchor="middle" x="1124.07" y="-244.8" font-family="Times,serif" font-size="14.00">trigger update</text>
</g>
<!-- Production Builder -->
<g id="node7" class="node"><title>Production Builder</title>
<ellipse fill="none" stroke="black" cx="1006" cy="-333.162" rx="77.81" ry="18"/>
<text text-anchor="middle" x="1006" y="-328.962" font-family="Times,serif" font-size="14.00">Production Builder</text>
</g>
<!-- Builder Plugin -->
<g id="node8" class="node"><title>Builder Plugin</title>
<polygon fill="none" stroke="black" points="823,-351.162 735.304,-333.162 823,-315.162 910.696,-333.162 823,-351.162"/>
<text text-anchor="middle" x="823" y="-328.962" font-family="Times,serif" font-size="14.00">Builder Plugin</text>
</g>
<!-- Production Artifacts -->
<g id="node9" class="node"><title>Production Artifacts</title>
<polygon fill="none" stroke="black" points="717.655,-351.162 714.655,-355.162 693.655,-355.162 690.655,-351.162 588.345,-351.162 588.345,-315.162 717.655,-315.162 717.655,-351.162"/>
<text text-anchor="middle" x="653" y="-328.962" font-family="Times,serif" font-size="14.00">Production Artifacts</text>
</g>
<!-- Linter -->
<g id="node10" class="node"><title>Linter</title>
<ellipse fill="none" stroke="black" cx="539" cy="-333.162" rx="31.9306" ry="18"/>
<text text-anchor="middle" x="539" y="-328.962" font-family="Times,serif" font-size="14.00">Linter</text>
</g>
<!-- Linter Plugin -->
<g id="node11" class="node"><title>Linter Plugin</title>
<polygon fill="none" stroke="black" points="409,-351.162 328.214,-333.162 409,-315.162 489.786,-333.162 409,-351.162"/>
<text text-anchor="middle" x="409" y="-328.962" font-family="Times,serif" font-size="14.00">Linter Plugin</text>
</g>
<!-- Test Framework -->
<g id="node12" class="node"><title>Test Framework</title>
<ellipse fill="none" stroke="black" cx="243" cy="-333.162" rx="67.8865" ry="18"/>
<text text-anchor="middle" x="243" y="-328.962" font-family="Times,serif" font-size="14.00">Test Framework</text>
</g>
<!-- Test Plugin -->
<g id="node13" class="node"><title>Test Plugin</title>
<polygon fill="none" stroke="black" points="87,-351.162 16.0118,-333.162 87,-315.162 157.988,-333.162 87,-351.162"/>
<text text-anchor="middle" x="87" y="-328.962" font-family="Times,serif" font-size="14.00">Test Plugin</text>
</g>
</g>
</svg>
