<?xml version="1.0" encoding="utf-8"?>
<!-- Generator: Adobe Illustrator 15.0.0, SVG Export Plug-In . SVG Version: 6.00 Build 0)  -->
<!DOCTYPE svg PUBLIC "-//W3C//DTD SVG 1.1//EN" "http://www.w3.org/Graphics/SVG/1.1/DTD/svg11.dtd">
<svg version="1.1" id="Vrstva_1" xmlns="http://www.w3.org/2000/svg" xmlns:xlink="http://www.w3.org/1999/xlink" x="0px" y="0px"
	 width="300px" height="300px" viewBox="0 0 300 300" enable-background="new 0 0 300 300" xml:space="preserve">
<path fill-rule="evenodd" clip-rule="evenodd" d="M292.237,104.955c13.005,43.824,9.33,87.371-20.076,131.192
	c-10.178,14.704-27.711,31.386-42.694,40.433c-45.521,27.144-91.046,29.122-136.567,11.029
	c-18.377-7.915-37.038-19.513-55.135-40.436C4.121,205.893-2.1,164.613,4.684,123.334c5.657-27.993,17.25-56.267,47.5-83.976
	c41-34.777,82.279-41.282,123.279-35.343c29.406,5.655,59.093,17.248,87.932,49.763C277.814,71.025,286.581,87.991,292.237,104.955"
	/>
<path fill-rule="evenodd" clip-rule="evenodd" fill="#FFFFFF" d="M289.407,105.802c13.008,42.977,9.33,85.955-19.509,128.929
	c-9.897,14.42-27.144,30.538-41.847,39.305c-44.674,26.86-89.347,28.839-134.021,11.025c-18.093-7.915-36.474-19.229-54.004-39.584
	C6.947,205.045,0.727,164.33,7.23,123.897c5.653-27.426,17.246-55.417,46.652-82.561C94.315,7.407,134.747,0.905,174.896,6.843
	c28.843,5.371,57.965,16.682,86.521,48.915C275.556,72.438,284.034,89.12,289.407,105.802"/>
<path fill-rule="evenodd" clip-rule="evenodd" fill="#291770" d="M282.623,103.258c-7.067-19.227-17.813-38.453-38.453-57.114
	c-38.737-33.08-77.474-39.584-116.207-33.93c-27.711,5.091-55.986,16.117-83.41,46.654C11.188,99.3,5.815,139.732,13.731,180.164
	c5.657,24.881,16.682,50.326,43.546,74.928c38.733,33.08,77.47,39.301,116.208,33.928c27.707-5.089,55.982-16.114,83.126-46.652
	c33.364-40.432,39.018-80.864,31.102-121.296C286.581,115.133,284.886,109.196,282.623,103.258"/>
<path fill-rule="evenodd" clip-rule="evenodd" fill="#FFFFFF" d="M198.441,51.996c-7.021-6.504-15.354-11.798-24.451-15.376
	c-9.097-3.576-18.952-5.434-28.808-5.434s-19.712,1.858-28.809,5.434c-9.096,3.576-17.43,8.872-24.379,15.397
	c-6.953,6.527-12.517,14.287-16.333,22.714c-3.815,8.427-5.883,17.522-6.132,26.663l1.963,46.361l-32.26-10.08l47.374,83.243
	l46.836-83.27l-32.26,10.082l1.783-46.336c0.207-4.063,1.116-8.092,2.715-11.919c1.603-3.829,3.896-7.459,6.88-10.729
	c2.98-3.269,6.654-6.18,10.615-8.588c3.965-2.408,8.218-4.314,13.798-4.663c5.58-0.349,12.483,0.861,17.645,2.795
	c5.157,1.935,8.574,4.596,11.29,7.651c2.719,3.055,4.736,6.502,6.036,10.195c1.296,3.691,1.967,7.633,1.698,11.53l-10.235,148.747
	h67.887l-10.723-138.296c-0.874-11.286-1.698-22.751-5.545-32.327C211.178,66.216,205.468,58.5,198.441,51.996"/>
</svg>
