<?xml version="1.0" encoding="UTF-8" standalone="no"?>
<svg
   xmlns:dc="http://purl.org/dc/elements/1.1/"
   xmlns:cc="http://creativecommons.org/ns#"
   xmlns:rdf="http://www.w3.org/1999/02/22-rdf-syntax-ns#"
   xmlns:svg="http://www.w3.org/2000/svg"
   xmlns="http://www.w3.org/2000/svg"
   xmlns:xlink="http://www.w3.org/1999/xlink"
   xmlns:sodipodi="http://sodipodi.sourceforge.net/DTD/sodipodi-0.dtd"
   xmlns:inkscape="http://www.inkscape.org/namespaces/inkscape"
   width="250.97008"
   height="273.10001"
   viewBox="0 0 250.97008 273.10001"
   version="1.1"
   preserveAspectRatio="xMinYMin meet"
   id="svg3478"
   inkscape:version="0.91 r13725"
   sodipodi:docname="Yeoman.svg">
  <metadata
     id="metadata3580">
    <rdf:RDF>
      <cc:Work
         rdf:about="">
        <dc:format>image/svg+xml</dc:format>
        <dc:type
           rdf:resource="http://purl.org/dc/dcmitype/StillImage" />
        <dc:title></dc:title>
      </cc:Work>
    </rdf:RDF>
  </metadata>
  <defs
     id="defs3578" />
  <sodipodi:namedview
     pagecolor="#ffffff"
     bordercolor="#666666"
     borderopacity="1"
     objecttolerance="10"
     gridtolerance="10"
     guidetolerance="10"
     inkscape:pageopacity="0"
     inkscape:pageshadow="2"
     inkscape:window-width="1436"
     inkscape:window-height="856"
     id="namedview3576"
     showgrid="false"
     fit-margin-top="0"
     fit-margin-left="0"
     fit-margin-right="0"
     fit-margin-bottom="0"
     inkscape:zoom="1.8066298"
     inkscape:cx="122.97008"
     inkscape:cy="95.2"
     inkscape:window-x="4"
     inkscape:window-y="0"
     inkscape:window-maximized="1"
     inkscape:current-layer="svg3478" />
  <g
     id="g3480"
     transform="translate(-5.029917,-3.1)">
    <path
       d="M 139.4,276.2 C 75.1,276.2 22.8,223.5 22.8,158.6 22.8,93.8 75.1,41 139.4,41 203.7,41 256,93.8 256,158.6 c 0,64.9 -52.3,117.6 -116.6,117.6 l 0,0 z m 0,-229.3 c -61,0 -110.7,50.1 -110.7,111.7 0,61.6 49.7,111.7 110.7,111.7 61,0 110.7,-50.1 110.7,-111.7 C 250.1,97 200.5,46.9 139.4,46.9 l 0,0 z"
       id="path3482"
       inkscape:connector-curvature="0"
       style="fill:#020202" />
    <g
       id="g3484">
      <defs
         id="defs3486">
        <path
           id="SVGID_1"
           d="m 203,63.6 0,-0.3 6.6,-33.2 c 0,0 -14.7,-33.9 -64.1,-29.8 C 96.2,4.4 90,15.8 81.9,29.4 l 4.8,21.7 -9.2,5.9 c 0,0 -3.3,-9.9 -8.5,-10.3 0,0 7.7,-11.1 2.2,-18.8 -5.5,-7.7 -35,-7 -46.4,32 0,0 -1.5,-11.8 -6.3,-11.8 -4.8,0 -22.5,6.4 -17.7,24.8 4.8,18.4 21.4,23.9 26.9,26.2 0,0 2.6,3.3 1.5,7.7 -0.6,2.3 -13.9,43.6 -2.8,81.8 8.3,28.5 35,53.3 35,53.3 20.4,19.4 47.8,31.3 78,31.3 62.7,0 113.6,-51.3 113.6,-114.6 0.1,-39.5 -19.8,-74.4 -50,-95 l 0,0 z"
           inkscape:connector-curvature="0" />
      </defs>
      <clipPath
         id="SVGID_2">
        <use
           xlink:href="#SVGID_1"
           overflow="visible"
           id="use3490"
           style="overflow:visible"
           x="0"
           y="0"
           width="100%"
           height="100%" />
      </clipPath>
      <g
         clip-path="url(#SVGID_2)"
         id="g3492">
        <path
           d="m 271.2,329.2 c 0,0 1.9,25.7 -5.1,30.9 0,0 -1.5,10.3 -11.4,10.6 0,0 -2.2,5.9 -12.5,2.9 -10.3,-2.9 -19.1,-33.1 -19.1,-33.1 0,0 31.1,-26.4 48.1,-11.3 l 0,0 z"
           id="path3494"
           inkscape:connector-curvature="0"
           style="fill:#f4cf8c" />
        <path
           d="m 179.5,200.4 c 0,0 82.6,13.3 91.7,128.8 0,0 -15.4,9.8 -31.5,10.5 0,0 1.4,-88.9 -60.2,-139.3 l 0,0 z"
           id="path3496"
           inkscape:connector-curvature="0"
           style="fill:#050505" />
        <path
           d="m 260.8,278.3 c -4.5,2.2 -14.1,6 -28.9,7.5 0.5,1.9 1,3.8 1.5,5.7 5.9,-0.9 16.5,-3.1 29.2,-8.1 -0.6,-1.7 -1.2,-3.4 -1.8,-5.1 l 0,0 z m -33,-5.7 c 0.6,1.9 1.3,3.7 1.8,5.6 5.4,-0.6 17.6,-2.3 28.4,-7.1 -0.8,-1.8 -1.5,-3.6 -2.3,-5.3 -4,1.8 -12.8,5 -27.9,6.8 l 0,0 z m 43.4,56.6 c -0.8,-10.6 -2.3,-20.3 -4.2,-29.2 -6.3,3.9 -16.3,8.6 -29.8,10.4 2.8,17.5 2.6,29.3 2.6,29.3 16,-0.7 31.4,-10.5 31.4,-10.5 l 0,0 z"
           id="path3498"
           inkscape:connector-curvature="0"
           style="fill:#dd002a" />
        <circle
           cx="94.300003"
           cy="112.9"
           r="17.700001"
           id="circle3500"
           style="fill:#f4cf8c" />
        <circle
           cx="94.300003"
           cy="112.9"
           r="17.700001"
           id="circle3502"
           style="fill:#f4cf8c" />
        <path
           d="m 76.6,112.9 c 0,0.5 0,1.1 0.1,1.6 1.3,-0.5 2.6,-1.2 4,-2.2 8.4,-5.4 8.6,-11.8 6.8,-15.8 -6.4,2.8 -10.9,9.1 -10.9,16.4 z"
           id="path3504"
           inkscape:connector-curvature="0"
           style="fill:#f4cf8c" />
        <circle
           cx="85.199997"
           cy="112.9"
           r="8.6000004"
           id="circle3506"
           style="fill:#f4cf8c" />
        <path
           d="m 85.2,104.4 c -0.3,0 -0.7,0 -1,0.1 3.3,0.5 5.9,4.1 5.9,8.5 0,4.4 -2.6,8 -5.9,8.5 0.3,0 0.7,0.1 1,0.1 4.7,0 8.6,-3.8 8.6,-8.6 -0.1,-4.8 -3.9,-8.6 -8.6,-8.6 l 0,0 z"
           id="path3508"
           inkscape:connector-curvature="0"
           style="fill:#d8af6f" />
        <path
           d="m 84.1,104.5 c -0.3,0 -0.5,-0.1 -0.8,-0.1 -3.7,0 -6.7,3.8 -6.7,8.6 0,-4.4 3.3,-8 7.5,-8.5 z m -7.5,8.4 c 0,4.7 3,8.6 6.7,8.6 0.3,0 0.5,0 0.8,-0.1 -4.2,-0.5 -7.5,-4.1 -7.5,-8.5 z"
           id="path3510"
           inkscape:connector-curvature="0"
           style="fill:#f4cf8c" />
        <circle
           cx="198"
           cy="112.9"
           r="17.700001"
           id="circle3512"
           style="fill:#f4cf8c" />
        <circle
           cx="198"
           cy="112.9"
           r="17.700001"
           id="circle3514"
           style="fill:#f4cf8c" />
        <circle
           cx="207.10001"
           cy="112.9"
           r="8.6000004"
           id="circle3516"
           style="fill:#f4cf8c" />
        <path
           d="m 202.2,112.9 c 0,-4.4 2.6,-8 5.9,-8.5 -0.3,0 -0.7,-0.1 -1,-0.1 -4.7,0 -8.6,3.8 -8.6,8.6 0,4.7 3.8,8.6 8.6,8.6 0.3,0 0.7,0 1,-0.1 -3.3,-0.5 -5.9,-4.1 -5.9,-8.5 z"
           id="path3518"
           inkscape:connector-curvature="0"
           style="fill:#d8af6f" />
        <path
           d="m 215.7,112.9 c 0,-4.7 -3,-8.6 -6.7,-8.6 -0.3,0 -0.5,0 -0.8,0.1 4.2,0.6 7.5,4.2 7.5,8.5 z m -7.5,8.5 c 0.3,0 0.5,0.1 0.8,0.1 3.7,0 6.7,-3.8 6.7,-8.6 0,4.4 -3.3,8 -7.5,8.5 l 0,0 z m -163.4,2.9 c 0,0 16.9,2.2 14.7,-14.7 0,0 5.9,9.2 19.1,0.7 13.2,-8.4 6.2,-19.5 2.6,-19.8 -3.7,-0.4 -8.8,-4.4 -21.7,8.8 l -7.3,-16.9 8.4,-11 c 0,0 1.2,15.9 13.4,11.4 12.3,-4.5 3.1,-31.6 -7.9,-31.6 L 46.3,62.6 c 0,0 3.7,-10.3 19.8,-18.7 0,0 6.2,-3.7 2.6,-12.9 -3.7,-9.2 -38.6,-2.6 -44.1,42.2 0,0 -6.2,-5.9 -4.8,-15.1 1.4,-9.2 -18,-6.6 -14.3,13.2 3.7,19.8 22.8,23.9 22.8,23.9 0,0 6.5,10.5 1.8,22.4 0,0.1 7.4,9.2 14.7,6.7 z m 33.8,-14 c 13.2,-8.4 6.2,-19.5 2.6,-19.8 -2.3,-0.2 -5.1,-1.8 -9.9,0 l 4.3,8.9 c 0,0 -0.9,12.7 -15.1,9.5 0,0 -0.1,0.5 -0.5,1.3 1.6,1.9 7.5,7.2 18.6,0.1 z m -19,0.5 c -2.2,3.9 -9.8,11.5 -28.2,2.1 -0.3,1.7 -0.7,3.1 -1.3,4.8 0,0 7.3,9.2 14.7,6.6 0,0 16.1,2.1 14.8,-13.5 z m 1,-39.4 c 0,0 1.2,15.9 13.4,11.4 5,-1.8 6.4,-7.5 5.6,-13.5 -3.1,3.2 -12.5,11.2 -16.2,-5.8 L 46.6,83.1 33.3,90.8 49.9,86.6 59.6,99.2 52.3,82.3 60.6,71.4 Z M 49.1,57.8 c 2.7,-3.8 7.9,-9.2 17.1,-14 0,0 6.2,-3.7 2.6,-12.9 -0.1,-0.2 -0.1,-0.3 -0.2,-0.5 -0.9,2.8 -2.6,6.1 -5.9,8.4 C 55.9,43.5 31.6,60.4 39.3,85.9 39.2,86.1 36,70.3 49.1,57.8 Z M 24.3,72.9 C 23,71.5 18.6,66.1 19.9,58.2 c 0.6,-3.6 -2.1,-5.4 -5.3,-5 -0.7,9.8 0.7,29.8 20.1,35.5 0,0 -7.3,-3.4 -10.4,-15.8 z"
           id="path3520"
           inkscape:connector-curvature="0"
           style="fill:#f4cf8c" />
        <path
           d="m 30.1,117.7 14.7,6.6 c 0,0 -13.2,72.7 55.8,75.7 0,0 0.5,46.8 -42.1,46 0,0 -56.3,-44.8 -28.4,-128.3 z"
           id="path3522"
           inkscape:connector-curvature="0"
           style="fill:#050505" />
        <path
           d="m 47.7,163.8 c -0.2,-0.7 -0.4,-1.3 -0.6,-2 l 0,0 c -3.3,1.7 -12,5.5 -24.6,5.4 0.1,1.6 0.2,3.2 0.3,4.8 6.3,0 16.8,-0.8 25.9,-5.7 l 0,-0.1 c -0.3,-0.7 -0.5,-1.4 -0.7,-2.1 l -0.3,-0.3 z m 4.7,10.4 c -0.3,-0.6 -0.7,-1.2 -1,-1.8 l 0,0 c -3.8,1.8 -14.2,6 -28,6.1 0.2,1.8 0.5,3.6 0.8,5.3 7.5,0 18.5,-1.3 29.3,-7.6 l 0,-0.1 c -0.4,-0.6 -0.7,-1.2 -1.1,-1.8 l 0,-0.1 0,0 z M 30.1,117.7 c -4,10.9 -5.7,21 -7,30.4 7,1.3 14,1.5 20.9,-3 -0.9,-11.8 0.8,-20.8 0.8,-20.8 l -14.7,-6.6 z"
           id="path3524"
           inkscape:connector-curvature="0"
           style="fill:#dd002a" />
        <path
           d="m 51.5,304.2 90,116 c 0,0 3.5,1.3 5,-0.5 l 0,-115.5 -95,0 z m 189.3,0 -90,116 c 0,0 -3.5,1.3 -5,-0.5 l 0,-115.5 95,0 z m -53.2,-106.1 -82.8,0 C 16.6,236.8 37.1,382.9 37.1,382.9 l 109.6,0 0,-66.8 6.1,66.8 102.4,0 c 0,-0.1 20.6,-146.1 -67.6,-184.8 l 0,0 z"
           id="path3526"
           inkscape:connector-curvature="0"
           style="fill:#050505" />
        <path
           d="m 223.1,340.6 c 0,0 8.8,30.1 19.1,33.1 10.3,2.9 12.5,-2.9 12.5,-2.9 2.9,-0.1 5.1,-1.1 6.7,-2.4 0.7,-10.6 1.2,-26.1 0,-43.6 -17,-2.3 -38.3,15.8 -38.3,15.8 z"
           id="path3528"
           inkscape:connector-curvature="0"
           style="fill:#f4cf8c" />
        <path
           d="m 261.9,334 c -1.2,-31.4 -7.5,-71.7 -28.7,-102 -25.3,-27 -53.7,-31.6 -53.7,-31.6 61.6,50.4 60.2,139.3 60.2,139.3 8.2,-0.4 16.3,-3.1 22.2,-5.7 z"
           id="path3530"
           inkscape:connector-curvature="0"
           style="fill:#930023" />
        <path
           d="m 40.6,289.1 c -0.3,1.3 -0.6,2.7 -0.8,4 24.4,-9 62.9,-14.8 106.3,-14.8 43.4,0 82,5.8 106.3,14.8 -0.3,-1.3 -0.5,-2.7 -0.8,-4 -24.4,-8.8 -62.6,-14.5 -105.5,-14.5 -42.9,0 -81.1,5.7 -105.5,14.5 z m 4.9,-18.5 c -0.4,1.2 -0.7,2.4 -1.1,3.6 24.5,-8.1 61,-13.2 101.8,-13.2 40.8,0 77.3,5.1 101.8,13.2 -0.4,-1.2 -0.7,-2.4 -1.1,-3.6 -24.5,-7.9 -60.5,-12.8 -100.7,-12.8 -40.2,0 -76.3,5 -100.7,12.8 z m 34.2,-56.5 c -18.9,24.3 -16.8,54 -16.8,54 l 5.1,-2.3 c -1.6,-25.8 10.2,-46.3 17.6,-56.5 -2,1.5 -4,3.1 -5.9,4.8 z m 127,-4.8 c 7.4,10.2 19.2,30.6 17.6,56.5 l 5.1,2.3 c 0,0 2,-29.6 -16.8,-54 -1.9,-1.7 -3.9,-3.3 -5.9,-4.8 l 0,0 z m -60,106.8 6.1,66.8 102.4,0 c 0,0 6.3,-44.8 -3.1,-91.4 l -5.2,-1.7 c 8.6,23.5 4.6,86.9 4.6,86.9 l -93.2,0 -8.8,-98.5 -7.1,0 -0.9,98.5 -99.6,0 C 37.3,332 44.4,290 44.4,290 l -4.2,1.2 c -9.5,46.7 -3.1,91.7 -3.1,91.7 l 109.6,0 0,-66.8 0,0 z"
           id="path3532"
           inkscape:connector-curvature="0"
           style="fill:#dd002a" />
        <path
           d="m 192,195 c 0,0 -17.6,16 -46.6,16 -34.4,0 -45.1,-16 -45.1,-16 l -6.1,-112.2 103.8,0 -6,112.2 0,0 z m 0,0 c 0,0 -17.6,16 -46.6,16 -34.4,0 -45.1,-16 -45.1,-16 l -6.1,-112.2 103.8,0 -6,112.2 0,0 z m 0,0 c 0,0 -17.6,16 -46.6,16 -34.4,0 -45.1,-16 -45.1,-16 l -6.1,-112.2 103.8,0 -6,112.2 0,0 z"
           id="path3534"
           inkscape:connector-curvature="0"
           style="fill:#f4cf8c" />
        <path
           d="m 159.3,102 2.6,-3.3 c 0,0 9.3,-0.5 23.7,7.2 0,0 -10.4,-12.8 -26,-8.5 l 0.5,-2.8 -4.4,7.2 c 0,0 1.6,9.7 -0.1,16.7 l -18.7,0 c -1.7,-7 -0.1,-16.7 -0.1,-16.7 l -4.4,-7.2 0.5,2.8 c -15.6,-4.3 -26,8.5 -26,8.5 14.3,-7.7 23.7,-7.2 23.7,-7.2 l 2.6,3.3 c -5,10 -16.8,10.8 -16.8,10.8 12.4,1.3 16.9,-6.4 16.9,-6.4 -0.7,6.1 0.6,14.1 0.6,14.1 l 12.4,8.8 0.1,-0.1 0.1,0.1 12.4,-8.8 c 0,0 1.3,-8 0.6,-14.1 0,0 4.5,7.7 16.9,6.4 -0.3,0 -12.1,-0.8 -17.1,-10.8 l 0,0 z"
           id="path3536"
           inkscape:connector-curvature="0"
           style="fill:#b27d30" />
        <ellipse
           cx="146.10001"
           cy="138.3"
           rx="17"
           ry="10.2"
           id="ellipse3538"
           style="fill:#050505" />
        <path
           d="m 146.1,149 c 3.9,0 7.4,-1.3 10.3,-2.6 -2,-2.2 -5.8,-3.6 -10.3,-3.6 -4.4,0 -8.3,1.5 -10.3,3.6 2.9,1.3 6.5,2.6 10.3,2.6 z"
           id="path3540"
           inkscape:connector-curvature="0"
           style="fill:#dd002a" />
        <path
           d="m 146.1,128.1 c -9.4,0 -17,4.6 -17,10.2 0,0.3 0,0.6 0.1,0.9 l 33.9,0 c 0,-0.3 0.1,-0.6 0.1,-0.9 0,-5.6 -7.6,-10.2 -17.1,-10.2 l 0,0 z"
           id="path3542"
           inkscape:connector-curvature="0"
           style="fill:#ffffff" />
        <path
           d="m 146.1,155.1 c -3.5,0 -6.7,-0.6 -9.4,-1.7 2.2,2.8 5.5,4.6 9.4,4.6 3.8,0 7.2,-1.8 9.4,-4.6 -2.7,1.1 -5.9,1.7 -9.4,1.7 z m 0,30.4 c -5.9,0 -11.4,-1.1 -16,-2.9 3.7,4.8 9.5,7.8 16,7.8 6.5,0 12.3,-3.1 16,-7.8 -4.6,1.8 -10,2.9 -16,2.9 l 0,0 z"
           id="path3544"
           inkscape:connector-curvature="0"
           style="fill:#c98c28" />
        <path
           d="m 95.2,101.3 101.8,0 1,-18.4 -103.8,0 1,18.4 z"
           id="path3546"
           inkscape:connector-curvature="0"
           style="fill:#cea063" />
        <path
           d="m 198.3,82.8 9.1,-52.7 c 0,0 -13.7,-27 -61,-27 -57.4,0 -61.6,27 -61.6,27 l 9.2,52.7 104.3,0 z"
           id="path3548"
           inkscape:connector-curvature="0"
           style="fill:#050505" />
        <path
           d="m 90.1,60.2 3.9,22.6 104.3,0 3.9,-22.6 -112.1,0 z"
           id="path3550"
           inkscape:connector-curvature="0"
           style="fill:#dd002a" />
        <path
           d="m 214,95.4 -135.7,0 -4.2,-12.6 144.2,0 -4.3,12.6 z"
           id="path3552"
           inkscape:connector-curvature="0"
           style="fill:#050505" />
        <circle
           cx="146.10001"
           cy="67.5"
           r="16.799999"
           id="circle3554"
           style="fill:#050505" />
        <path
           d="m 146.1,82.2 c -8.1,0 -14.7,-6.6 -14.7,-14.7 0,-8.1 6.6,-14.7 14.7,-14.7 8.1,0 14.7,6.6 14.7,14.7 0.1,8.1 -6.5,14.7 -14.7,14.7 z m 0,-27.5 c -7.1,0 -12.8,5.7 -12.8,12.8 0,7.1 5.7,12.8 12.8,12.8 7.1,0 12.8,-5.7 12.8,-12.8 0.1,-7.1 -5.7,-12.8 -12.8,-12.8 l 0,0 z m 0,23.4 c -5.9,0 -10.6,-4.8 -10.6,-10.6 0,-5.9 4.8,-10.6 10.6,-10.6 5.9,0 10.6,4.8 10.6,10.6 0.1,5.8 -4.7,10.6 -10.6,10.6 z m 0,-19.9 c -5.1,0 -9.2,4.1 -9.2,9.2 0,5.1 4.1,9.2 9.2,9.2 5.1,0 9.2,-4.1 9.2,-9.2 0.1,-5 -4.1,-9.2 -9.2,-9.2 z m 2.7,5.5 4.8,-3.5 -3.7,4.7 5.8,-1.5 -5.1,3.1 5.9,0.7 -5.9,1 5.4,2.8 -5.8,-1.2 3.9,4.5 -5,-3.2 2,5.6 -3.5,-4.8 -0.1,6 -1.5,-5.8 -2.3,5.5 0.6,-5.9 -4.1,4.3 2.7,-5.3 -5.4,2.5 4.5,-4 -6,0.4 5.6,-2.1 -5.7,-1.8 6,0.1 -4.7,-3.7 5.5,2.2 -3,-5.1 4.3,4.1 -1,-5.9 2.6,5.4 1.2,-5.8 0.5,6 3.3,-5 -1.8,5.7 z"
           id="path3556"
           inkscape:connector-curvature="0"
           style="fill:#dd002a" />
        <path
           d="m 149.3,67.5 c 0,1.8 -1.4,3.2 -3.2,3.2 -1.8,0 -3.2,-1.4 -3.2,-3.2 0,-1.8 1.4,-3.2 3.2,-3.2 1.8,0 3.2,1.4 3.2,3.2 z"
           id="path3558"
           inkscape:connector-curvature="0"
           style="fill:#050505" />
        <path
           d="m 145.4,211.1 c -34.4,0 -45.1,-16 -45.1,-16 l 1.2,22.8 c 0,0 10.3,15.6 43.9,15.6 28.2,0 45.3,-15.6 45.3,-15.6 L 192,195 c -0.1,0 -17.7,16.1 -46.6,16.1 l 0,0 z"
           id="path3560"
           inkscape:connector-curvature="0"
           style="fill:#dd002a" />
        <path
           d="m 146.1,233.1 c 0.8,-3 1.3,-6.8 1.3,-10.9 0,-4.2 -0.5,-8 -1.3,-10.9 -0.8,3 -1.3,6.8 -1.3,10.9 0,4.1 0.5,8 1.3,10.9 l 0,0 z"
           id="path3562"
           inkscape:connector-curvature="0"
           style="fill:#050505" />
        <circle
           cx="154.3"
           cy="222.89999"
           r="3.0999999"
           id="circle3564"
           style="fill:#930023" />
        <circle
           cx="153.60001"
           cy="222.2"
           r="3.0999999"
           id="circle3566"
           style="fill:#ffffff" />
        <path
           d="m 157.3,253.6 -22.3,0 c -3.5,0 -6.4,2.9 -6.4,6.4 l 0,15.9 c 0,3.5 2.9,6.4 6.4,6.4 l 22.3,0 c 3.5,0 6.4,-2.9 6.4,-6.4 l 0,-15.9 c 0,-3.6 -2.9,-6.4 -6.4,-6.4 z m -1.7,8.9 0,10.9 c 0,0.6 -0.5,1.2 -1.2,1.2 l -16.5,0 c -0.6,0 -1.2,-0.5 -1.2,-1.2 l 0,-10.9 c 0,-0.6 0.5,-1.2 1.2,-1.2 l 16.5,0 c 0.6,0 1.2,0.5 1.2,1.2 l 0,0 z"
           id="path3568"
           inkscape:connector-curvature="0"
           style="fill:#ffb000" />
        <path
           d="m 133.8,120.5 12.3,8.7 0.1,-0.1 0.1,0.1 12.3,-8.7 -24.8,0 z"
           id="path3570"
           inkscape:connector-curvature="0"
           style="fill:#c98c28" />
        <path
           d="m 146.1,127.3 c 0,0 -10.4,-12.4 -34.8,-6.3 l -36.9,36.3 c 0,0 13.3,9.9 34.1,7.2 20.8,-2.7 37.8,-24.9 37.6,-37.2 z m 0,0 c 0,0 10.4,-12.4 34.8,-6.3 24.4,6.1 36.9,36.3 36.9,36.3 0,0 -13.3,9.9 -34.1,7.2 -20.8,-2.7 -37.7,-24.9 -37.6,-37.2 l 0,0 z"
           id="path3572"
           inkscape:connector-curvature="0"
           style="fill:#4f1907" />
        <path
           d="m 196.7,233.3 2.2,0 -3.9,4.7 -3.8,-4.7 2.2,0 0,-2.1 -8.2,0 0,2.1 3.2,0 5.4,6.7 0,4.2 -3.2,0 0,2.1 8.6,0 0,-2.1 -3.2,0 0,-4.2 5.4,-6.7 3.2,0 0,-2.1 -8.2,0 0.3,2.1 z"
           id="path3574"
           inkscape:connector-curvature="0"
           style="fill:#dd002a" />
      </g>
    </g>
  </g>
</svg>
